# AST/ASF file generated using VICON BodyLanguage
# -----------------------------------------------
:version 1.10
:name VICON
:units
  mass 1.0
  length 0.45
  angle deg
:documentation
   .ast/.asf automatically generated from VICON data using
   VICON BodyBuilder and BodyLanguage model FoxedUp or BRILLIANT.MOD
:root
   order TX TY TZ RX RY RZ
   axis XYZ
   position 0 0 0  
   orientation 0 0 0 
:bonedata
  begin
     id 1 
     name lhipjoint
     direction 0.627457 -0.725269 0.283342 
     length 2.53237 
     axis 0 0 0  XYZ
  end
  begin
     id 2 
     name lfemur
     direction 0.34202 -0.939693 0  
     length 7.32496  
     axis 0 0 20  XYZ
    dof rx ry rz
    limits (-160.0 20.0)
           (-70.0 70.0)
           (-60.0 70.0)
  end
  begin
     id 3 
     name ltibia
     direction 0.34202 -0.939693 0   
     length 7.69674   
     axis 0 0 20   XYZ
    dof rx
    limits (-10.0 170.0)
  end
  begin
     id 4 
     name lfoot
     direction 0.127289 -0.349722 0.928166   
     length 1.8612   
     axis -90 7.62852e-016 20   XYZ
    dof rx rz
    limits (-45.0 90.0)
           (-70.0 20.0)
  end
  begin
     id 5 
     name ltoes
     direction 1.53561e-011 -4.21864e-011 1   
     length 0.925608   
     axis -90 7.62852e-016 20   XYZ
    dof rx
    limits (-90.0 20.0)
  end
  begin
     id 6 
     name rhipjoint
     direction -0.609094 -0.738725 0.288599   
     length 2.48624  
     axis 0 0 0  XYZ 
  end
  begin
     id 7 
     name rfemur
     direction -0.34202 -0.939693 0   
     length 7.44259   
     axis 0 0 -20   XYZ
    dof rx ry rz
    limits (-160.0 20.0)
           (-70.0 70.0)
           (-70.0 60.0)
  end
  begin
     id 8 
     name rtibia
     direction -0.34202 -0.939693 0   
     length 7.7781   
     axis 0 0 -20   XYZ
    dof rx
    limits (-10.0 170.0)
 end
 begin
     id 9 
     name rfoot
     direction -0.107015 -0.294021 0.949789   
     length 2.14741  
     axis -90 -7.62852e-016 -20   XYZ
    dof rx rz
    limits (-45.0 90.0)
           (-20.0 70.0)
  end
  begin
     id 10 
     name rtoes
     direction -1.53497e-011 -4.21924e-011 1   
     length 1.0706   
     axis -90 -7.62852e-016 -20   XYZ
    dof rx
    limits (-90.0 20.0)
  end
  begin
     id 11 
     name lowerback
     direction -0.0142066 0.998112 -0.0597545   
     length 1.86627   
     axis 0 0 0   XYZ
    dof rx ry rz
    limits (-20.0 45.0)
           (-30.0 30.0)
           (-30.0 30.0)
  end
  begin
     id 12 
     name upperback
     direction 0.00547294 0.999744 0.0219437   
     length 1.86272   
     axis 0 0 0   XYZ
    dof rx ry rz
    limits (-20.0 45.0)
           (-30.0 30.0)
           (-30.0 30.0)
  end
  begin
     id 13 
     name thorax
     direction 0.0116162 0.998704 0.0495538   
     length 1.8703   
     axis 0 0 0   XYZ
    dof rx ry rz
    limits (-20.0 45.0)
           (-30.0 30.0)
           (-30.0 30.0)
  end
  begin
     id 14 
     name lowerneck
     direction -0.0106574 0.998739 0.0490586   
     length 1.8074   
     axis 0 0 0   XYZ
    dof rx ry rz
    limits (-20.0 45.0)
           (-30.0 30.0)
           (-30.0 30.0)
  end
  begin
     id 15 
     name upperneck
     direction 0.030527 0.976587 -0.212944   
     length 1.80681   
     axis 0 0 0   XYZ
    dof rx ry rz
    limits (-20.0 45.0)
           (-30.0 30.0)
           (-30.0 30.0)
  end
  begin
     id 16
     name head
     direction 0.00869225 0.997035 -0.0764531  
     length 1.8313  
     axis 0 0 0   XYZ
    dof rx ry rz
    limits (-20.0 45.0)
           (-30.0 30.0)
           (-30.0 30.0)
  end
  begin
     id 17 
     name lclavicle
     direction 0.915958 0.399447 0.0382386  
     length 3.78965  
     axis 0 0 0   XYZ
    dof ry rz
    limits (-20.0 10.0)
           (0.0 20.0)
  end
  begin
     id 18 
     name lhumerus
     direction 1 -4.48967e-011 3.19303e-027   
     length 4.78095   
     axis -180 -30 -90   XYZ
    dof rx ry rz
    limits (-60.0 90.0)
           (-90.0 90.0)
           (-90.0 90.0)
  end
  begin
     id 19
     name lradius
     direction 1 -4.48967e-011 -3.77974e-027   
     length 3.58615   
     axis -180 -30 -90   XYZ
    dof rx
    limits (-10.0 170.0)
  end
  begin
     id 20
     name lwrist
     direction 1 -4.48927e-011 1.2807e-027   
     length 1.79307   
     axis 1.91374e-015 90 90   XYZ
    dof ry
    limits (-180.0 0.0)
 end
  begin
     id 21 
     name lhand
     direction 1 -4.49036e-011 2.5614e-027   
     length 0.659812   
     axis -1.63439e-015 90 90   XYZ
    dof rx rz
    limits (-90.0 90.0)
           (-45.0 45.0)
  end
  begin
     id 22 
     name lfingers
     direction 1 -4.49052e-011 5.1228e-027   
     length 0.531957   
     axis -3.26879e-015 90 90   XYZ
    dof rx
    limits (0.0 90.0)
  end
  begin
     id 23
     name lthumb
     direction 0.707107 -6.35012e-011 0.707107   
     length 0.763787   
     axis -90 45 2.85299e-015   XYZ
    dof rx rz
    limits (-45.0 45.0)
           (-45.0 45.0)
  end
  begin
     id 24 
     name rclavicle
     direction -0.895351 0.435135 0.0948887   
     length 3.70497  
     axis 0 0 0   XYZ 
    dof ry rz
    limits (-10.0 20.0)
           (-20.0 0.0)
  end
  begin
     id 25 
     name rhumerus
     direction -1 -4.48971e-011 2.38946e-027  
     length 4.48913   
     axis -180 30 90   XYZ
    dof rx ry rz
    limits (-90.0 60.0)
           (-90.0 90.0)
           (-90.0 90.0)
  end
  begin
     id 26 
     name rradius
     direction -1 -4.4895e-011 4.38668e-027   
     length 3.7051   
     axis -180 30 90   XYZ
    dof rx
    limits (-10.0 170.0)
  end
  begin
     id 27 
     name rwrist
     direction -1 -4.49007e-011 1.2807e-027   
     length 1.85255   
     axis 1.91374e-015 -90 -90   XYZ
    dof ry
    limits (-180.0 0.0)
  end
  begin
     id 28
     name rhand
     direction -1 -4.48851e-011 2.5614e-027   
     length 0.449136   
     axis -1.63439e-015 -90 -90   XYZ
    dof rx rz
    limits (-90.0 90.0)
           (-45.0 45.0)
  end
  begin
     id 29
     name rfingers
     direction -1 -4.49128e-011 5.1228e-027   
     length 0.362105   
     axis -3.26879e-015 -90 -90   XYZ
    dof rx
    limits (0.0 90.0)
  end
  begin
     id 30
     name rthumb
     direction -0.707107 -6.34851e-011 0.707107   
     length 0.519912   
     axis -90 -45 -2.85299e-015   XYZ
    dof rx rz
    limits (-45.0 45.0)
           (-45.0 45.0)
  end
:hierarchy
  begin
    root lhipjoint rhipjoint lowerback
    lhipjoint lfemur
    lfemur ltibia
    ltibia lfoot
    lfoot ltoes
    rhipjoint rfemur
    rfemur rtibia
    rtibia rfoot
    rfoot rtoes
    lowerback upperback
    upperback thorax
    thorax lowerneck lclavicle rclavicle
    lowerneck upperneck
    upperneck head
    lclavicle lhumerus
    lhumerus lradius
    lradius lwrist
    lwrist lhand lthumb
    lhand lfingers
    rclavicle rhumerus
    rhumerus rradius
    rradius rwrist
    rwrist rhand rthumb
    rhand rfingers
  end

#!OML:ASF I:\Actors\actors\Patient Classification 2\Patient 1\Session 1\actor1.ASF
:FULLY-SPECIFIED
:DEGREES
1
root -0.770351 18.6543 6.26827 3.24394 -4.71503 -3.94936
lowerback -2.75495 0.100714 2.43242
upperback -1.5274 0.0715635 1.75396
thorax -0.0208042 0.0276244 0.435446
lowerneck -13.1971 0.571791 -2.33932
upperneck 22.8099 0.767166 2.34695
head 9.33388 0.410939 1.29222
rclavicle -1.22439e-014 -2.08724e-014
rhumerus -48.4092 -7.65937 -82.846
rradius 42.3412
rwrist 20.2654
rhand -3.84894 -38.1062
rfingers 7.12502
rthumb 21.899 -66.8868
lclavicle -1.22439e-014 -2.08724e-014
lhumerus -45.9752 7.95528 88.0345
lradius 42.1109
lwrist -2.70807
lhand -7.7501 -25.985
lfingers 7.12502
lthumb 18.1493 3.18826
rfemur 0 0 0
rtibia 0
rfoot 0 0
rtoes 0
lfemur -3.75343 -9.03564 -10.9007
ltibia 21.7815
lfoot -27.8732 18.1049
ltoes -54.2352
2
root -0.770193 18.6542 6.26905 3.25412 -4.72503 -3.96087
lowerback -2.76661 0.106615 2.45359
upperback -1.52824 0.0785021 1.75367
thorax -0.0150648 0.0310082 0.423502
lowerneck -13.1479 0.585044 -2.28857
upperneck 22.7508 0.791927 2.27071
head 9.3041 0.418555 1.25924
rclavicle -2.41275e-014 1.25234e-014
rhumerus -48.3941 -7.69107 -82.839
rradius 42.3223
rwrist 20.2667
rhand -3.80973 -38.1091
rfingers 7.12502
rthumb 21.9367 -66.8854
lclavicle -2.41275e-014 1.25234e-014
lhumerus -45.9538 7.99519 88.0095
lradius 42.073
lwrist -2.79375
lhand -7.6829 -26.0003
lfingers 7.12502
lthumb 18.2139 3.16692
rfemur 0 0 0
rtibia 0
rfoot 0 0
rtoes 0
lfemur -3.76832 -8.98413 -10.8806
ltibia 21.7959
lfoot -27.8768 18.0472
ltoes -54.1684
3
root -0.774701 18.6593 6.26019 3.53321 -4.53948 -3.96094
lowerback -2.89459 0.0533773 2.38363
upperback -1.64105 0.00751883 1.77203
thorax -0.0598587 -0.00488722 0.479672
lowerneck -13.0974 0.602489 -2.23012
upperneck 22.6623 0.830165 2.15687
head 9.26385 0.429176 1.2133
rclavicle 4.19933e-015 3.61788e-014
rhumerus -48.3851 -7.70157 -82.826
rradius 42.3134
rwrist 20.2812
rhand -3.80909 -38.1015
rfingers 7.12502
rthumb 21.9373 -66.8776
lclavicle 4.19933e-015 3.61788e-014
lhumerus -45.9511 8.01465 88.0118
lradius 42.0705
lwrist -2.81598
lhand -7.67221 -26.005
lfingers 7.12502
lthumb 18.2242 3.16128
rfemur 0 0 0
rtibia 0
rfoot 0 0
rtoes 0
lfemur -4.18847 -8.525 -10.7106
ltibia 21.7977
lfoot -27.4394 17.6632
ltoes -54.4313
4
root -0.789358 18.6765 6.23353 4.35274 -3.95213 -3.84444
lowerback -3.26168 -0.1397 2.02413
upperback -1.98817 -0.244263 1.80684
thorax -0.21098 -0.13039 0.709431
lowerneck -13.0862 0.61243 -2.2233
upperneck 22.6416 0.847648 2.13551
head 9.25429 0.435656 1.20652
rclavicle 3.09048e-015 -1.02374e-014
rhumerus -48.4045 -7.66425 -82.8361
rradius 42.3373
rwrist 20.2916
rhand -3.9577 -38.0065
rfingers 7.12502
rthumb 21.7946 -66.7994
lclavicle 3.09048e-015 -1.02374e-014
lhumerus -45.9629 8.03725 88.0114
lradius 42.0687
lwrist -2.81008
lhand -7.69517 -25.991
lfingers 7.12502
lthumb 18.2021 3.1773
rfemur 0 0 0
rtibia 0
rfoot 0 0
rtoes 0
lfemur -5.42014 -7.60026 -10.4115
ltibia 21.7981
lfoot -26.4327 16.7599
ltoes -54.891
5
root -0.788503 18.6757 6.23694 4.30689 -3.9629 -3.80476
lowerback -3.25396 -0.134173 1.99375
upperback -1.9681 -0.236337 1.79815
thorax -0.194565 -0.126051 0.717732
lowerneck -13.0914 0.605917 -2.25412
upperneck 22.6458 0.840053 2.15939
head 9.25658 0.432105 1.21913
rclavicle 1.33558e-015 -1.13307e-014
rhumerus -48.4096 -7.67572 -82.8276
rradius 42.3545
rwrist 20.3035
rhand -3.96586 -37.973
rfingers 7.12502
rthumb 21.7867 -66.7667
lclavicle 1.33558e-015 -1.13307e-014
lhumerus -45.9638 8.04017 88.0252
lradius 42.0576
lwrist -2.79226
lhand -7.71655 -25.9658
lfingers 7.12502
lthumb 18.1816 3.20446
rfemur 0 0 0
rtibia 0
rfoot 0 0
rtoes 0
lfemur -5.35468 -7.67102 -10.4769
ltibia 21.7994
lfoot -26.5142 16.7821
ltoes -54.817
6
root -0.787824 18.6754 6.23916 4.31061 -3.94917 -3.77335
lowerback -3.29597 -0.139889 1.96939
upperback -1.95382 -0.245059 1.79211
thorax -0.156349 -0.129982 0.72474
lowerneck -13.0871 0.609696 -2.24848
upperneck 22.6149 0.850532 2.13332
head 9.24496 0.434768 1.21006
rclavicle 9.34909e-016 -8.74653e-015
rhumerus -48.3739 -7.69928 -82.8173
rradius 42.3287
rwrist 20.3412
rhand -3.87995 -37.9865
rfingers 7.12502
rthumb 21.8692 -66.7707
lclavicle 9.34909e-016 -8.74653e-015
lhumerus -45.964 8.01861 88.0447
lradius 42.0743
lwrist -2.75269
lhand -7.78137 -25.9263
lfingers 7.12502
lthumb 18.1192 3.24974
rfemur 0 0 0
rtibia 0
rfoot 0 0
rtoes 0
lfemur -5.35798 -7.56776 -10.5045
ltibia 21.7932
lfoot -26.4288 16.679
ltoes -54.8253
7
root -0.787512 18.6753 6.24152 4.31949 -3.94811 -3.76426
lowerback -3.34317 -0.148744 1.9704
upperback -1.94353 -0.258695 1.7803
thorax -0.119493 -0.13663 0.711471
lowerneck -13.0851 0.622697 -2.22264
upperneck 22.6053 0.863812 2.12868
head 9.24107 0.442685 1.20553
rclavicle -1.25017e-014 1.00386e-014
rhumerus -48.3488 -7.69131 -82.8401
rradius 42.3103
rwrist 20.3519
rhand -3.81498 -37.9741
rfingers 7.12502
rthumb 21.9316 -66.7509
lclavicle -1.25017e-014 1.00386e-014
lhumerus -45.9744 8.00151 88.0238
lradius 42.0971
lwrist -2.75244
lhand -7.80626 -25.8916
lfingers 7.12502
lthumb 18.0952 3.28665
rfemur 0 0 0
rtibia 0
rfoot 0 0
rtoes 0
lfemur -5.35778 -7.52706 -10.5123
ltibia 21.7839
lfoot -26.3868 16.6624
ltoes -54.8331
8
root -0.787545 18.6753 6.24353 4.31608 -3.95019 -3.76792
lowerback -3.35819 -0.144747 1.98549
upperback -1.93981 -0.254347 1.76813
thorax -0.107407 -0.134549 0.690623
lowerneck -13.1063 0.613586 -2.22737
upperneck 22.6343 0.844581 2.16079
head 9.25538 0.436742 1.21561
rclavicle -2.45437e-014 3.97569e-015
rhumerus -48.3419 -7.71488 -82.8516
rradius 42.2991
rwrist 20.3607
rhand -3.79766 -37.9604
rfingers 7.12502
rthumb 21.9483 -66.7353
lclavicle -2.45437e-014 3.97569e-015
lhumerus -45.9805 7.97092 88.006
lradius 42.0985
lwrist -2.77167
lhand -7.75575 -25.8744
lfingers 7.12502
lthumb 18.1438 3.29936
rfemur 0 0 0
rtibia 0
rfoot 0 0
rtoes 0
lfemur -5.34101 -7.5712 -10.512
ltibia 21.7766
lfoot -26.4467 16.6875
ltoes -54.7453
9
root -0.787867 18.675 6.24458 4.30526 -3.92883 -3.76544
lowerback -3.33217 -0.148964 1.98057
upperback -1.95177 -0.258647 1.76866
thorax -0.134192 -0.136848 0.693893
lowerneck -13.1268 0.613251 -2.21491
upperneck 22.6738 0.846209 2.14077
head 9.27315 0.436263 1.20742
rclavicle 4.00675e-015 2.26615e-014
rhumerus -48.3582 -7.71636 -82.8502
rradius 42.3006
rwrist 20.3554
rhand -3.75924 -37.9642
rfingers 7.12502
rthumb 21.9851 -66.7348
lclavicle 4.00675e-015 2.26615e-014
lhumerus -46.006 7.95078 88.0173
lradius 42.0997
lwrist -2.73294
lhand -7.7396 -25.8769
lfingers 7.12502
lthumb 18.1594 3.29541
rfemur 0 0 0
rtibia 0
rfoot 0 0
rtoes 0
lfemur -5.32775 -7.52721 -10.5073
ltibia 21.7708
lfoot -26.4302 16.6284
ltoes -54.7521
10
root -0.788184 18.6736 6.24523 4.25387 -3.91407 -3.76562
lowerback -3.23779 -0.156675 1.97415
upperback -1.96763 -0.265209 1.773
thorax -0.203175 -0.140493 0.702093
lowerneck -13.1271 0.626385 -2.20751
upperneck 22.7076 0.864777 2.13202
head 9.28464 0.444463 1.20572
rclavicle 5.97596e-015 5.36719e-015
rhumerus -48.3978 -7.68039 -82.8589
rradius 42.3214
rwrist 20.331
rhand -3.63628 -37.9974
rfingers 7.12502
rthumb 22.1032 -66.7541
lclavicle 5.97596e-015 5.36719e-015
lhumerus -46.0538 7.92798 88.0322
lradius 42.1179
lwrist -2.67673
lhand -7.75204 -25.8842
lfingers 7.12502
lthumb 18.1474 3.28925
rfemur 0 0 0
rtibia 0
rfoot 0 0
rtoes 0
lfemur -5.26973 -7.48085 -10.5046
ltibia 21.7687
lfoot -26.3837 16.5722
ltoes -54.8014
11
root -0.775112 18.6575 6.27348 3.52635 -4.48606 -3.86644
lowerback -2.47577 0.0943254 2.47904
upperback -1.98685 0.0858447 1.61885
thorax -0.647883 0.0262364 0.27089
lowerneck -12.899 0.57549 -2.24805
upperneck 22.9125 0.750319 2.32087
head 9.31458 0.406655 1.26484
rclavicle -2.00027e-015 9.93923e-016
rhumerus -48.9731 -7.87001 -82.8378
rradius 42.4137
rwrist 20.3514
rhand -3.00277 -38.2432
rfingers 7.12502
rthumb 22.7113 -66.9266
lclavicle -2.00027e-015 9.93923e-016
lhumerus -46.5635 7.59783 87.9433
lradius 42.183
lwrist -2.64759
lhand -7.76225 -25.9226
lfingers 7.12502
lthumb 18.1376 3.25179
rfemur 0 0 0
rtibia 0
rfoot 0 0
rtoes 0
lfemur -4.14789 -8.28113 -10.7808
ltibia 21.7735
lfoot -27.3047 17.4039
ltoes -54.4356
12
root -0.770557 18.6523 6.28405 3.2947 -4.68811 -3.91102
lowerback -2.22866 0.183517 2.6574
upperback -2.00076 0.211765 1.5762
thorax -0.798253 0.0855443 0.129047
lowerneck -12.8121 0.556344 -2.26921
upperneck 22.9698 0.709866 2.38693
head 9.31875 0.39267 1.28649
rclavicle -6.63133e-015 -1.40143e-014
rhumerus -49.1672 -7.95246 -82.8048
rradius 42.4359
rwrist 20.3875
rhand -1.06492 -38.8864
rfingers 7.12502
rthumb 24.57 -67.3298
lclavicle -6.63133e-015 -1.40143e-014
lhumerus -46.7396 7.48491 87.924
lradius 42.1939
lwrist -2.68332
lhand -7.79396 -25.9935
lfingers 7.12502
lthumb 18.1071 3.18366
rfemur 0 0 0
rtibia 0
rfoot 0 0
rtoes 0
lfemur -3.77928 -8.54072 -10.8721
ltibia 21.7824
lfoot -27.6447 17.6969
ltoes -54.2906
13
root -0.774343 18.6583 6.27659 3.54874 -4.50026 -3.89046
lowerback -2.32275 0.120603 2.56072
upperback -2.12234 0.129151 1.59782
thorax -0.871919 0.044118 0.204241
lowerneck -12.7963 0.560664 -2.25356
upperneck 22.9664 0.718759 2.35918
head 9.31458 0.395072 1.27516
rclavicle -1.99064e-014 1.2424e-014
rhumerus -49.1662 -7.92662 -82.786
rradius 42.4052
rwrist 20.397
rhand -3.19095 -38.0702
rfingers 7.12502
rthumb 22.5307 -66.7756
lclavicle -1.99064e-014 1.2424e-014
lhumerus -46.7696 7.52122 87.9191
lradius 42.2038
lwrist -2.72009
lhand -7.78137 -26.0038
lfingers 7.12502
lthumb 18.1192 3.17224
rfemur 0 0 0
rtibia 0
rfoot 0 0
rtoes 0
lfemur -4.16211 -8.31656 -10.7656
ltibia 21.7909
lfoot -27.353 17.4806
ltoes -54.4341
